<svg version="1.0" xmlns="http://www.w3.org/2000/svg"
 width="668px" style="transform:scale(1,1.001);" height="375.75px" viewBox="0 0 320.000000 180.000000"
 preserveAspectRatio="xMidYMid meet">
<g transform="translate(0.000000,180.000000) scale(0.100000,-0.100000)"
fill="#000000" stroke="none">
<path d="M0 905 l0 -895 515 0 c337 0 515 3 515 10 0 6 -5 10 -11 10 -6 0 -1 13 10 29
14 19 21 45 21 74 0 78 48 331 79 414 16 43 50 118 75 166 25 49 46 96 46 105
0 10 9 32 20 50 11 18 20 39 20 48 0 8 -20 52 -45 98 -63 118 -62 149 9 281
63 117 89 138 170 136 l53 -1 7 53 c5 34 15 59 29 73 19 18 28 19 81 12 33 -5
73 -16 90 -26 28 -16 31 -23 34 -74 3 -50 0 -57 -18 -63 -11 -4 -31 -28 -44
-53 -25 -51 -22 -80 15 -134 11 -14 27 -64 36 -111 14 -74 14 -91 2 -143 -13
-53 -18 -61 -52 -77 -44 -20 -43 -32 5 -134 16 -35 35 -82 43 -105 7 -24 26
-74 41 -113 49 -127 71 -199 93 -295 12 -52 31 -117 43 -145 11 -27 21 -58 21
-67 1 -17 39 -18 649 -18 l648 0 0 895 0 895 -1600 0 -1600 0 0 -895z"/>
<path d="M1414 632 c-102 -74 -186 -198 -218 -322 -13 -52 -32 -122 -40 -155 -9 -32
-16 -79 -16 -102 l0 -43 326 0 326 0 -5 43 c-2 23 -17 74 -32 112 -15 39 -39
104 -54 145 -24 68 -84 172 -119 209 -7 8 -21 26 -30 40 -33 53 -74 101 -86
101 -7 0 -31 -13 -52 -28z"/>
</g>
</svg>
